<svg width="282" height="279" viewBox="0 0 282 279" fill="none" xmlns="http://www.w3.org/2000/svg">
<path d="M141 0L152.198 88.3197L198.35 12.1901L172.656 97.4286L245.783 46.6526L187.642 114.071L275.099 97.4286L194.562 135.37L281.228 155.739L192.221 157.643L263.11 211.5L181.024 177.038L223.878 255.071L162.906 190.201L170.316 278.919L141 194.857L111.684 278.919L119.094 190.201L58.1223 255.071L100.976 177.038L18.8904 211.5L89.7787 157.643L0.772415 155.739L87.4378 135.37L6.90103 97.4286L94.3583 114.071L36.2166 46.6526L109.344 97.4286L83.6501 12.1901L129.802 88.3197L141 0Z" fill="#FFC786"/>
</svg>
