<svg width="44" height="44" viewBox="0 0 44 44" fill="none" xmlns="http://www.w3.org/2000/svg">
<path d="M22 23.375C25.0376 23.375 27.5 20.9126 27.5 17.875C27.5 14.8374 25.0376 12.375 22 12.375C18.9624 12.375 16.5 14.8374 16.5 17.875C16.5 20.9126 18.9624 23.375 22 23.375Z" stroke="#EE1C47" stroke-width="1.5" stroke-linecap="round" stroke-linejoin="round"/>
<path d="M35.75 17.875C35.75 30.25 22 39.875 22 39.875C22 39.875 8.25 30.25 8.25 17.875C8.25 14.2283 9.69866 10.7309 12.2773 8.15228C14.8559 5.57366 18.3533 4.125 22 4.125C25.6467 4.125 29.1441 5.57366 31.7227 8.15228C34.3013 10.7309 35.75 14.2283 35.75 17.875V17.875Z" stroke="#EE1C47" stroke-width="1.5" stroke-linecap="round" stroke-linejoin="round"/>
</svg>
