<svg width="30" height="30" viewBox="0 0 30 30" fill="none" xmlns="http://www.w3.org/2000/svg">
<path d="M13.2248 14.1082H6.10817C4.93017 14.1082 3.80041 13.6402 2.96744 12.8072C2.13446 11.9743 1.6665 10.8445 1.6665 9.6665V6.10817C1.6665 4.93017 2.13446 3.80041 2.96744 2.96744C3.80041 2.13446 4.93017 1.6665 6.10817 1.6665H9.6665C10.8445 1.6665 11.9743 2.13446 12.8072 2.96744C13.6402 3.80041 14.1082 4.93017 14.1082 6.10817V13.2165C14.1082 13.4516 14.0154 13.6771 13.85 13.8441C13.6845 14.0111 13.4599 14.106 13.2248 14.1082ZM6.10817 3.4415C5.40093 3.4415 4.72265 3.72246 4.22255 4.22255C3.72246 4.72265 3.4415 5.40093 3.4415 6.10817V9.6665C3.4415 10.3737 3.72246 11.052 4.22255 11.5521C4.72265 12.0522 5.40093 12.3332 6.10817 12.3332H12.3332V6.10817C12.3332 5.40093 12.0522 4.72265 11.5521 4.22255C11.052 3.72246 10.3737 3.4415 9.6665 3.4415H6.10817Z" fill="#EE1C47"/>
<path d="M23.8916 14.1082H16.775C16.5385 14.1082 16.3117 14.0142 16.1445 13.847C15.9772 13.6798 15.8833 13.453 15.8833 13.2165V6.10818C15.8833 5.52419 15.9985 4.94593 16.2222 4.4065C16.4459 3.86707 16.7739 3.37705 17.1872 2.9645C17.6005 2.55194 18.0911 2.22494 18.631 2.00222C19.1708 1.77949 19.7493 1.66542 20.3333 1.66651H23.8916C25.0696 1.66651 26.1994 2.13447 27.0324 2.96745C27.8653 3.80042 28.3333 4.93018 28.3333 6.10818V9.66651C28.3333 10.8445 27.8653 11.9743 27.0324 12.8072C26.1994 13.6402 25.0696 14.1082 23.8916 14.1082ZM17.6666 12.3332H23.8916C24.5989 12.3332 25.2772 12.0522 25.7773 11.5521C26.2773 11.052 26.5583 10.3738 26.5583 9.66651V6.10818C26.5583 5.40094 26.2773 4.72266 25.7773 4.22256C25.2772 3.72246 24.5989 3.44151 23.8916 3.44151H20.3333C19.6261 3.44151 18.9478 3.72246 18.4477 4.22256C17.9476 4.72266 17.6666 5.40094 17.6666 6.10818V12.3332Z" fill="#EE1C47"/>
<path d="M9.6665 28.3333H6.10817C4.93017 28.3333 3.80041 27.8653 2.96744 27.0323C2.13446 26.1994 1.6665 25.0696 1.6665 23.8916V20.3333C1.6665 19.1553 2.13446 18.0255 2.96744 17.1925C3.80041 16.3596 4.93017 15.8916 6.10817 15.8916H13.2165C13.453 15.8916 13.6798 15.9855 13.847 16.1528C14.0142 16.32 14.1082 16.5468 14.1082 16.7833V23.8916C14.1082 25.0696 13.6402 26.1994 12.8072 27.0323C11.9743 27.8653 10.8445 28.3333 9.6665 28.3333ZM6.10817 17.6666C5.40093 17.6666 4.72265 17.9476 4.22255 18.4477C3.72246 18.9478 3.4415 19.626 3.4415 20.3333V23.8916C3.4415 24.5989 3.72246 25.2771 4.22255 25.7772C4.72265 26.2773 5.40093 26.5583 6.10817 26.5583H9.6665C10.3737 26.5583 11.052 26.2773 11.5521 25.7772C12.0522 25.2771 12.3332 24.5989 12.3332 23.8916V17.6666H6.10817Z" fill="#EE1C47"/>
<path d="M23.8917 28.3333H20.3333C19.1553 28.3333 18.0256 27.8653 17.1926 27.0324C16.3596 26.1994 15.8917 25.0696 15.8917 23.8916V16.775C15.8917 16.5385 15.9856 16.3117 16.1528 16.1445C16.32 15.9772 16.5468 15.8833 16.7833 15.8833H23.8917C24.4757 15.8833 25.0539 15.9985 25.5933 16.2222C26.1328 16.4459 26.6228 16.7739 27.0353 17.1872C27.4479 17.6005 27.7749 18.0911 27.9976 18.631C28.2204 19.1708 28.3344 19.7493 28.3333 20.3333V23.8916C28.3333 25.0696 27.8654 26.1994 27.0324 27.0324C26.1994 27.8653 25.0697 28.3333 23.8917 28.3333ZM17.6667 17.6666V23.8916C17.6667 24.5989 17.9476 25.2772 18.4477 25.7773C18.9478 26.2773 19.6261 26.5583 20.3333 26.5583H23.8917C24.5989 26.5583 25.2772 26.2773 25.7773 25.7773C26.2774 25.2772 26.5583 24.5989 26.5583 23.8916V20.3333C26.5583 19.6261 26.2774 18.9478 25.7773 18.4477C25.2772 17.9476 24.5989 17.6666 23.8917 17.6666H17.6667Z" fill="#EE1C47"/>
</svg>
