<svg width="30" height="30" viewBox="0 0 30 30" fill="none" xmlns="http://www.w3.org/2000/svg">
<path d="M17.569 14.9041C16.9492 14.7182 16.5971 14.065 16.783 13.4452C16.9217 12.9824 16.992 12.5002 16.992 12.0117C16.992 9.26559 14.7578 7.03125 12.0115 7.03125C9.26537 7.03125 7.03102 9.26559 7.03102 12.0117C7.03102 14.7578 9.26537 16.9922 12.0115 16.9922C12.4768 16.9922 12.9366 16.9283 13.3786 16.8027C14.0007 16.6251 14.6494 16.9862 14.8265 17.6088C15.0039 18.2311 14.6429 18.8795 14.0204 19.0567C13.3697 19.2419 12.6938 19.3359 12.0115 19.3359C7.9731 19.3359 4.68727 16.0503 4.68727 12.0117C4.68727 7.9731 7.9731 4.6875 12.0115 4.6875C16.0501 4.6875 19.3357 7.9731 19.3357 12.0117C19.3357 12.7283 19.2323 13.437 19.0281 14.1181C18.8422 14.7382 18.189 15.0902 17.569 14.9041ZM15.5235 24.711C15.0293 24.2928 14.29 24.3544 13.8718 24.8483C13.152 25.6989 12.5455 26.4787 12.0115 27.2422C10.7579 25.4501 9.33472 23.8914 7.95181 22.3769C4.94476 19.0839 2.34787 16.2399 2.34375 12.0003C2.34993 6.6758 6.68678 2.34375 12.0115 2.34375C17.3362 2.34375 21.6733 6.6758 21.6795 11.9978C21.679 12.3376 21.6618 12.6768 21.6282 13.0062C21.5627 13.6501 22.0315 14.2252 22.6753 14.2909C23.3189 14.3568 23.8943 13.8879 23.9598 13.2438C24.0015 12.8368 24.0228 12.4184 24.0232 11.9975C24.0195 8.79204 22.7682 5.77904 20.5005 3.51357C18.2323 1.24786 15.2177 0 12.0115 0C8.80554 0 5.79094 1.24786 3.52272 3.51357C1.25473 5.77904 0.00366211 8.79204 0 12C0.00228882 14.3353 0.65094 16.5264 1.9828 18.6983C3.13637 20.579 4.63486 22.2201 6.22124 23.9573C7.77649 25.6606 9.38507 27.4221 10.6696 29.4541C10.8842 29.794 11.2582 30 11.6599 30H12.3631C12.765 30 13.139 29.794 13.3537 29.4543C13.9767 28.4688 14.7098 27.4862 15.6608 26.3626C16.0789 25.8685 16.0174 25.1289 15.5235 24.711ZM29.6123 29.6988C29.3882 29.9007 29.1078 30 28.8284 30C28.5077 30 28.1886 29.8693 27.9572 29.6125L25.0106 26.342C24.2498 26.7682 23.3734 27.0117 22.4412 27.0117C19.5332 27.0117 17.1677 24.646 17.1677 21.7383C17.1677 18.8306 19.5332 16.4648 22.4412 16.4648C25.3489 16.4648 27.7146 18.8306 27.7146 21.7383C27.7146 22.8671 27.3578 23.914 26.7515 24.7728L29.6986 28.0437C30.1316 28.5246 30.0932 29.2655 29.6123 29.6988V29.6988ZM22.4412 24.668C24.0566 24.668 25.3709 23.3537 25.3709 21.7383C25.3709 20.1228 24.0566 18.8086 22.4412 18.8086C20.8257 18.8086 19.5115 20.1228 19.5115 21.7383C19.5115 23.3537 20.8257 24.668 22.4412 24.668Z" fill="#EE1C47"/>
</svg>
