<svg width="30" height="30" viewBox="0 0 30 30" fill="none" xmlns="http://www.w3.org/2000/svg">
<path d="M14.9958 0C6.7232 1.07312e-05 0 6.73262 0 15.0042C0 23.2758 6.7232 30 14.9958 30C23.2685 30 29.9937 23.2758 29.9937 15.0042C29.9937 6.73261 23.2685 -1.06907e-05 14.9958 0ZM13.9286 2.19726V3.21846C13.9296 3.80775 14.4065 4.28551 14.9958 4.2878C15.5884 4.28995 16.0703 3.81102 16.0714 3.21846V2.19726C22.3227 2.71407 27.2859 7.67728 27.8027 13.9286H26.7794C26.1877 13.9307 25.7099 14.4125 25.7122 15.0042C25.7143 15.5927 26.191 16.0691 26.7794 16.0714H27.8027C27.2896 22.3259 22.3255 27.2864 16.0714 27.8027V26.7899C16.0736 26.1949 15.5908 25.712 14.9958 25.7143C14.4041 25.7164 13.9263 26.1982 13.9286 26.7899V27.8027C7.6713 27.2901 2.70991 22.3287 2.19726 16.0714H3.21011C3.80185 16.0736 4.28341 15.5959 4.28571 15.0042C4.28786 14.4092 3.80511 13.9262 3.21011 13.9286H2.19726C2.71361 7.67452 7.67406 2.71036 13.9286 2.19726ZM19.9449 8.65098L12.3026 11.702C12.0264 11.8119 11.8077 12.0306 11.6978 12.3068L8.64677 19.9491C8.2953 20.8307 9.16938 21.7047 10.0509 21.3533L17.689 18.2959C17.964 18.1861 18.1819 17.9682 18.2917 17.6933L21.3491 10.0551C21.5066 9.66041 21.4182 9.21 21.1231 8.90415C20.664 8.45961 20.1731 8.57352 19.9449 8.65098ZM18.3984 11.5953L16.4523 16.4627L11.5848 18.4089L13.531 13.5414L18.3984 11.5953Z" fill="#EE1C47"/>
</svg>
